<svg xmlns="http://www.w3.org/2000/svg" xmlns:xlink="http://www.w3.org/1999/xlink" width="500" zoomAndPan="magnify" viewBox="0 0 375 112.499997" height="150" preserveAspectRatio="xMidYMid meet" version="1.0"><defs><g/></defs><g fill="#44433f" fill-opacity="1"><g transform="translate(11.044787, 65.013886)"><g><path d="M 17.726562 -21.453125 L 17.726562 -23.910156 L 2.050781 -23.910156 L 2.050781 0 L 4.507812 0 L 4.507812 -10.726562 L 15.441406 -10.726562 L 15.441406 -13.183594 L 4.507812 -13.183594 L 4.507812 -21.453125 Z M 17.726562 -21.453125 "/></g></g></g><g fill="#44433f" fill-opacity="1"><g transform="translate(47.788509, 65.013886)"><g><path d="M 19.265625 0 L 13.867188 -9.5625 C 16.773438 -10.625 18.683594 -13.355469 18.683594 -16.5 C 18.683594 -20.527344 15.644531 -23.910156 11.167969 -23.910156 L 2.21875 -23.910156 L 2.21875 0 L 4.679688 0 L 4.679688 -9.085938 L 11.167969 -9.085938 C 11.203125 -9.085938 11.273438 -9.085938 11.304688 -9.085938 L 16.429688 0 Z M 4.679688 -21.453125 L 11.167969 -21.453125 C 14.210938 -21.453125 16.121094 -19.164062 16.121094 -16.5 C 16.121094 -13.835938 14.210938 -11.546875 11.167969 -11.546875 L 4.679688 -11.546875 Z M 4.679688 -21.453125 "/></g></g></g><g fill="#44433f" fill-opacity="1"><g transform="translate(86.51214, 65.013886)"><g><path d="M 4.507812 -2.460938 L 4.507812 -10.726562 L 16.667969 -10.726562 L 16.667969 -13.183594 L 4.507812 -13.183594 L 4.507812 -21.453125 L 17.726562 -21.453125 L 17.726562 -23.910156 L 2.050781 -23.910156 L 2.050781 0 L 17.933594 0 L 17.933594 -2.460938 Z M 4.507812 -2.460938 "/></g></g></g><g fill="#44433f" fill-opacity="1"><g transform="translate(124.655443, 65.013886)"><g><path d="M 17.933594 -23.910156 L 17.933594 -4.578125 L 4.476562 -23.910156 L 2.21875 -23.910156 L 2.21875 0 L 4.679688 0 L 4.679688 -19.402344 L 18.136719 0 L 20.394531 0 L 20.394531 -23.910156 Z M 17.933594 -23.910156 "/></g></g></g><g fill="#44433f" fill-opacity="1"><g transform="translate(165.768587, 65.013886)"><g><path d="M 16.941406 0 L 19.949219 0 L 10.042969 -13.902344 L 19.058594 -23.910156 L 15.78125 -23.910156 L 4.714844 -11.683594 L 4.714844 -23.910156 L 2.21875 -23.910156 L 2.21875 0 L 4.714844 0 L 4.714844 -7.992188 L 8.335938 -12.023438 Z M 16.941406 0 "/></g></g></g><g fill="#44433f" fill-opacity="1"><g transform="translate(204.560488, 65.013886)"><g><path d="M 18 -23.910156 L 0.683594 -23.910156 L 0.683594 -21.453125 L 8.128906 -21.453125 L 8.128906 0 L 10.589844 0 L 10.589844 -21.453125 L 18 -21.453125 Z M 18 -23.910156 "/></g></g></g><g fill="#44433f" fill-opacity="1"><g transform="translate(241.747976, 65.013886)"><g><path d="M 1.980469 -18.378906 L 3.414062 -18.378906 L 4.03125 -24.117188 L 1.367188 -24.117188 Z M 1.980469 -18.378906 "/></g></g></g><g fill="#44433f" fill-opacity="1"><g transform="translate(265.656542, 65.013886)"><g><path d="M 18.617188 0 L 21.347656 0 L 12.296875 -23.910156 L 10.042969 -23.910156 L 1.023438 0 L 3.757812 0 L 6.351562 -6.933594 L 16.019531 -6.933594 Z M 7.277344 -9.394531 L 11.167969 -19.984375 L 15.097656 -9.394531 Z M 7.277344 -9.394531 "/></g></g></g><g fill="#44433f" fill-opacity="1"><g transform="translate(306.53071, 65.013886)"><g><path d="M 19.265625 0 L 13.867188 -9.5625 C 16.773438 -10.625 18.683594 -13.355469 18.683594 -16.5 C 18.683594 -20.527344 15.644531 -23.910156 11.167969 -23.910156 L 2.21875 -23.910156 L 2.21875 0 L 4.679688 0 L 4.679688 -9.085938 L 11.167969 -9.085938 C 11.203125 -9.085938 11.273438 -9.085938 11.304688 -9.085938 L 16.429688 0 Z M 4.679688 -21.453125 L 11.167969 -21.453125 C 14.210938 -21.453125 16.121094 -19.164062 16.121094 -16.5 C 16.121094 -13.835938 14.210938 -11.546875 11.167969 -11.546875 L 4.679688 -11.546875 Z M 4.679688 -21.453125 "/></g></g></g><g fill="#44433f" fill-opacity="1"><g transform="translate(345.25433, 65.013886)"><g><path d="M 18 -23.910156 L 0.683594 -23.910156 L 0.683594 -21.453125 L 8.128906 -21.453125 L 8.128906 0 L 10.589844 0 L 10.589844 -21.453125 L 18 -21.453125 Z M 18 -23.910156 "/></g></g></g></svg>